<svg xmlns="http://www.w3.org/2000/svg" viewBox="0 0 64 64">
  <defs>
    <linearGradient id="ground" x1="8" y1="6" x2="56" y2="58" gradientUnits="userSpaceOnUse">
      <stop stop-color="#2F6174"/>
      <stop offset=".52" stop-color="#17120D"/>
      <stop offset="1" stop-color="#4A644D"/>
    </linearGradient>
    <linearGradient id="gold" x1="20" y1="14" x2="45" y2="50" gradientUnits="userSpaceOnUse">
      <stop stop-color="#E3C477"/>
      <stop offset=".55" stop-color="#C89B4A"/>
      <stop offset="1" stop-color="#8D6429"/>
    </linearGradient>
    <path id="petal" d="M32 10c4.2 5.2 5.2 9.8 0 15-5.2-5.2-4.2-9.8 0-15Z"/>
  </defs>
  <rect x="2" y="2" width="60" height="60" rx="9" fill="#0F0C0A" stroke="#C89B4A" stroke-width="2"/>
  <rect x="7" y="7" width="50" height="50" rx="6" fill="url(#ground)" stroke="#E8D9B7" stroke-opacity=".42"/>
  <path d="M12 20V12h8M44 12h8v8M52 44v8h-8M20 52h-8v-8" fill="none" stroke="#C89B4A" stroke-linecap="square" stroke-width="1.5"/>
  <g fill="#A33F2C" stroke="#E8D9B7" stroke-opacity=".5" stroke-width=".8">
    <use href="#petal"/>
    <use href="#petal" transform="rotate(45 32 32)"/>
    <use href="#petal" transform="rotate(90 32 32)"/>
    <use href="#petal" transform="rotate(135 32 32)"/>
    <use href="#petal" transform="rotate(180 32 32)"/>
    <use href="#petal" transform="rotate(225 32 32)"/>
    <use href="#petal" transform="rotate(270 32 32)"/>
    <use href="#petal" transform="rotate(315 32 32)"/>
  </g>
  <circle cx="32" cy="32" r="11" fill="#17120D" stroke="url(#gold)" stroke-width="2"/>
  <circle cx="32" cy="32" r="7.5" fill="#C89B4A" fill-opacity=".14" stroke="#E8D9B7" stroke-opacity=".46"/>
  <path d="m29 26 9 6-9 6V26Z" fill="url(#gold)" stroke="#F3DEAA" stroke-linejoin="round" stroke-width=".8"/>
</svg>
